Cover:

[b]Encoded/Released By..:[/b] karakurachow (KaRa)
[b]Release Name.........:[/b] Rain Man 1988 720p BluRay AC3 x264-KaRa
[b]Genre................:[/b] Drama
[b]Subtitle(s)..........:[/b] English
[b]IMDB.................:[/b] [url]http://www.imdb.com/title/tt0095953/[/url]
[b]Plot / Synopsis......:[/b] Selfish yuppie Charlie Babbitt's father left a fortune to his savant brother Raymond and a pittance to Charlie; they travel cross-country. 
[b]Source...............:[/b] Rain Man 1988 Blu-ray CEE 1080p AVC DTS-HD MA 5 1-CHDBits (Thanks!)

[b]General[/b]
Complete name                            : Rain Man 1988 720p BluRay AC3 x264-KaRa
Format                                   : Matroska
Format version                           : Version 2
File size                                : 4.03 GiB
Duration                                 : 2h 13mn
Overall bit rate                         : 4 310 Kbps
Encoded date                             : UTC 2012-02-18 15:52:04
Writing application                      : mkvmerge v5.2.1 ('A Far Off Place') built on Jan  2 2012 23:21:10
Writing library                          : libebml v1.2.3 + libmatroska v1.3.0


[b]Video[/b]
ID                                       : 1
Format                                   : AVC
Format/Info                              : Advanced Video Codec
Format profile                           : High@L3.1
Format settings, CABAC                   : Yes
Format settings, ReFrames                : 4 frames
Codec ID                                 : V_MPEG4/ISO/AVC
Duration                                 : 2h 13mn
Bit rate                                 : 3 862 Kbps
Width                                    : 1 280 pixels
Height                                   : 688 pixels
Display aspect ratio                     : 1.860
Frame rate                               : 23.976 fps
Color space                              : YUV
Chroma subsampling                       : 4:2:0
Bit depth                                : 8 bits
Scan type                                : Progressive
Bits/(Pixel*Frame)                       : 0.183
Stream size                              : 3.53 GiB (88%)

[b]Audio[/b]
ID                                       : 2
Format                                   : AC-3
Format/Info                              : Audio Coding 3
Mode extension                           : CM (complete main)
Codec ID                                 : A_AC3
Duration                                 : 2h 13mn
Bit rate mode                            : Constant
Bit rate                                 : 448 Kbps
Channel(s)                               : 6 channels
Channel positions                        : Front: L C R, Side: L R, LFE
Sampling rate                            : 48.0 KHz
Bit depth                                : 16 bits
Compression mode                         : Lossy
Stream size                              : 429 MiB (10%)

Screenshots :
 
http://img821.imageshack.us/img821/5513/snapshot20120219041657.png 
http://img860.imageshack.us/img860/3885/snapshot20120219041743.png
]http://img713.imageshack.us/img713/3143/snapshot20120219041917.png 
http://img96.imageshack.us/img96/7084/snapshot20120219042119.png 
http://img542.imageshack.us/img542/9193/thumbs20120219032858.png


Trailer


Greets & Thanks To : HDLiTE,X,LKRG,Bubanee,Noir,CHD,FXG,3Li,AMIABLE,aAF,KingdomRG,UnKnOwN,SaM,HDMaNiAcS,ReleaseLoungeRG,IMAGINE,DDR,CiNEFiLE,blackjesus,TheFalcon007,NPW,CHD,CtrlHD,HDChina,
                     Feel-Free,HDSceneRG,greenbud1969,HiDt,MXMG,ExtraTorrentRG,SamuraiRG,FLAWL3S & To All Other Releasers Past & Present...


Quality Release Brought To You By KaRa 2012©